<svg xmlns="http://www.w3.org/2000/svg" width="100.56" height="195.63" viewBox="0 0 100.56 195.63"><defs><style>.a{fill:#3c63a7}</style></defs><path class="a" d="M48.39 91.6c-.07.17-.11.29-.18.45s-.19.47-.28.71l-.18.52-.24.7c-.06.18-.11.36-.16.54s-.15.46-.21.7l-.15.55c-.05.23-.12.46-.17.69s-.08.38-.13.58-.1.44-.14.67-.07.4-.11.59-.08.44-.11.66-.06.42-.09.63l-.09.62c0 .22-.05.44-.07.66s-.05.39-.07.58 0 .47 0 .7v2.98l.08 52.47a7.5 7.5 0 01-.24 1.85c0 .11-.05.22-.08.33a6.34 6.34 0 01-.26.73 2.14 2.14 0 01-.12.28 6.77 6.77 0 01-.33.66l-.06.12a6.19 6.19 0 01-.51.75l-.1.12a7.78 7.78 0 01-1.34 1.35 7.89 7.89 0 01-.82.56 7.89 7.89 0 01-11.9-6.78V15.19a15.36 15.36 0 00-4.06-10.61 14.65 14.65 0 00-10.73-4.6A14.78 14.78 0 00.81 14.63L.16 138.38v19.19a38 38 0 0038 38h.06a37.86 37.86 0 0025.26-9.75c.95-.86 1.87-1.77 2.74-2.73.4-.45.8-.91 1.19-1.38a38 38 0 006.35-11.09c.22-.58.42-1.17.6-1.76a37.81 37.81 0 001.71-11.26v-42.38a9.24 9.24 0 019.29-9.23h.07a15.08 15.08 0 00.06-30.15H78.9a7.77 7.77 0 00-4 1.14l-.21.11-23.8 13.17zm33.9 2.33a5.53 5.53 0 115.53-5.53 5.53 5.53 0 01-5.53 5.53z"/><path class="a" d="M44.34 68.73a12.92 12.92 0 001.11 9.87l-.76.43a4.9 4.9 0 00-1.88 6.66 4.89 4.89 0 006.65 1.9l23.76-13.16a4.9 4.9 0 001.91-6.67 4.9 4.9 0 00-6.63-1.91l-.38.21a13 13 0 00-23.79 2.72z"/></svg>