<svg xmlns="http://www.w3.org/2000/svg" width="100.56" height="195.63" viewBox="0 0 100.56 195.63"><path d="M96.22 80.29a15 15 0 0 0-10.68-4.47l-9.38-.05h-2v.05c-.64 0-1.27.06-1.89.11h-.19c-.58 0-1.14.11-1.69.18h-.3q-.78.11-1.53.24l-.36.06c-.48.08-.94.18-1.4.29l-.39.08c-.45.1-.88.22-1.3.34l-.41.11q-.61.18-1.2.39l-.41.13c-.39.14-.76.28-1.12.43l-.41.17-1 .46-.41.19-1 .51-.39.21-.9.54-.38.24-.83.57-.37.27c-.26.19-.52.39-.76.59l-.36.29-.71.62-.34.32c-.22.21-.44.42-.65.64l-.32.34-.59.66-.31.36c-.19.23-.37.45-.54.68l-.29.38-.5.69-.27.41-.44.7-.26.43-.4.71-.24.45c-.12.24-.24.47-.35.71s-.15.32-.22.47-.22.48-.32.72-.13.33-.2.49-.19.47-.28.71l-.18.52-.24.7c-.06.18-.11.36-.16.54s-.15.46-.21.7l-.15.55c-.05.23-.12.46-.17.69s-.08.38-.13.58-.1.44-.14.67-.07.4-.11.59-.08.44-.11.66-.06.42-.09.63l-.09.62c0 .22-.05.44-.07.66s-.05.39-.07.58 0 .47 0 .7v2.98l.08 52.47a7.5 7.5 0 0 1-.24 1.85c0 .11-.05.22-.08.33a6.34 6.34 0 0 1-.26.73 2.14 2.14 0 0 1-.12.28 6.77 6.77 0 0 1-.33.66l-.06.12a6.19 6.19 0 0 1-.51.75l-.1.12a7.78 7.78 0 0 1-1.34 1.35 7.89 7.89 0 0 1-.82.56 7.89 7.89 0 0 1-11.9-6.78V14.69A14.75 14.75 0 0 0 15.54-.07 14.8 14.8 0 0 0 .84 14.61L.19 138.33v19.19a38 38 0 0 0 38 38h.03a37.86 37.86 0 0 0 25.26-9.7c.95-.86 1.87-1.77 2.74-2.73.4-.45.8-.91 1.19-1.38a38 38 0 0 0 6.35-11.09c.22-.58.42-1.17.6-1.76a37.81 37.81 0 0 0 1.71-11.26v-42.38a9.24 9.24 0 0 1 9.29-9.23h.07a15.08 15.08 0 0 0 10.79-25.7zm-13.9 13.64a5.53 5.53 0 1 1 5.53-5.53 5.53 5.53 0 0 1-5.56 5.53z" opacity=".7" fill="#3c63a7"/><path d="M45.34 71.73a12.92 12.92 0 0 0 1.11 9.87l-.76.43a4.9 4.9 0 0 0-1.88 6.66 4.89 4.89 0 0 0 6.65 1.9l23.76-13.16a4.9 4.9 0 0 0 1.91-6.67 4.9 4.9 0 0 0-6.63-1.91l-.38.21a13 13 0 0 0-23.79 2.72z" fill="#3c63a7"/></svg>