<svg xmlns="http://www.w3.org/2000/svg" width="650.19" height="198.6" viewBox="0 0 650.19 198.6"><defs><style>.a{fill:#383838}.c{fill:#3c63a7}</style></defs><path class="a" d="M239.71 160.25q0 10.45-3.51 17.2a27.23 27.23 0 01-10.08 10.79 44.29 44.29 0 01-15.75 5.67 118.62 118.62 0 01-20.52 1.62h-36.36V75.82q9.18-.88 17.37-1.44t15.75-.54a105.76 105.76 0 0122.68 2.07q9.18 2.08 14.67 6a22.29 22.29 0 017.83 9.72 34.24 34.24 0 012.34 13 28.56 28.56 0 01-6.12 18.36 25.71 25.71 0 01-5.94 5.58 30.49 30.49 0 01-6.12 3.24 70.09 70.09 0 017.38 2.61 26.55 26.55 0 0113.89 13.32 28.21 28.21 0 012.49 12.51zm-30.78-54.18c0-5.63-2-9.54-5.88-11.7s-9.21-3.24-15.85-3.24c-2.29 0-4.16.07-5.61.18s-2.65.25-3.62.36v33.48h11.95q8.87 0 13.94-5.31t5.07-13.77zm-20.83 71.64a74.69 74.69 0 0011-.72 22 22 0 008.33-2.79 13.66 13.66 0 005.24-5.58 20.22 20.22 0 001.81-9.27q0-9.72-6.51-13.77t-16.75-4.05h-13.25v36.18zm144.2-25.2a65.5 65.5 0 01-2.25 17.31 38.82 38.82 0 01-7.38 14.58 36.7 36.7 0 01-13.23 10.08q-8.1 3.78-19.62 3.79t-19.53-3.7a35.62 35.62 0 01-13.05-9.9 39.92 39.92 0 01-7.38-14.4 62.17 62.17 0 01-2.34-17.19 55.17 55.17 0 012.7-17.37 42.35 42.35 0 018-14.4 37.34 37.34 0 0113.41-9.81 46.35 46.35 0 0118.9-3.6q11.34 0 19.35 3.6a34.64 34.64 0 0113 9.73 38.81 38.81 0 017.2 14.21 63.67 63.67 0 012.22 17.07zm-24.48.19a64.56 64.56 0 00-.72-9.64 25 25 0 00-2.72-8.36 16.47 16.47 0 00-5.42-5.86 17.75 17.75 0 00-17.46.09 17.61 17.61 0 00-5.61 6 27.6 27.6 0 00-3 8.37 49.68 49.68 0 00-.91 9.54 58 58 0 00.82 9.72 29.43 29.43 0 002.8 8.73 16.11 16.11 0 005.52 6.21 15.44 15.44 0 008.77 2.34 15.84 15.84 0 009-2.34 16.08 16.08 0 005.51-6.21 28 28 0 002.72-8.73 67.33 67.33 0 00.7-9.86zm123.4 43.73h-19.11l-14.58-39.06-16.74 39.06h-17.28l-31.5-84.42a49.74 49.74 0 016.75-1.71 35.92 35.92 0 016-.63 18 18 0 019.45 2.34q3.87 2.35 5.85 7.92l16.2 48.6 12.06-29.33-8.64-27.55a43.73 43.73 0 016.39-1.53 40.38 40.38 0 015.85-.45 13.65 13.65 0 018 2.34q3.33 2.35 5 7.56l15.48 47.17 11.7-40.69q2.16-7.91 5.58-12.15c2.28-2.81 5.7-4.23 10.26-4.23a32.42 32.42 0 016.57.63 42 42 0 015.85 1.71zm60.18.18a13.27 13.27 0 01-3.42.54q-2.52.18-5.58.18a26.49 26.49 0 01-5.85-.63 12.06 12.06 0 01-5-2.34 11.59 11.59 0 01-3.33-4.54 18.56 18.56 0 01-1.26-7.39V68.63a8.44 8.44 0 012.7-.45c1.8-.17 3.66-.27 5.58-.27a31.19 31.19 0 015.76.54 14.24 14.24 0 015.22 2.08 11.15 11.15 0 013.78 4.31 16 16 0 011.44 7.29zm59.75-16.37a28.33 28.33 0 007.94-1 30.46 30.46 0 006.13-2.42 24.36 24.36 0 004.7-3.15q2-1.69 3.61-3.15a49.87 49.87 0 014.52 6.94c1.56 2.82 2.35 5.12 2.35 6.92 0 2.65-1.51 5-4.5 7.2a33.6 33.6 0 01-10.71 5 57.62 57.62 0 01-16.29 2.06 65 65 0 01-16.68-2.21 36.8 36.8 0 01-14.58-7.56 38.63 38.63 0 01-10.35-14.49q-4-9.07-4-22.95 0-11.34 3.51-19.53a39.29 39.29 0 019.42-13.59 37 37 0 0113.23-7.92 46.75 46.75 0 0115.12-2.52q10.08 0 17.1 3.16a31.13 31.13 0 0111.43 8.46 33.31 33.31 0 016.39 12.14 51.59 51.59 0 012 14.4v2.52c0 1 0 2-.09 3.06s-.12 2.14-.18 3.15a22.71 22.71 0 01-.27 2.44h-53.1q.72 9.9 6.14 16.46t17.16 6.58zm8.2-36.54q0-8.65-3.35-14.05t-12-5.4a14.89 14.89 0 00-11.86 5.13q-4.44 5.13-4.43 14.32zm57.36-24.88a31.31 31.31 0 012.88-3.57 20.46 20.46 0 014.41-3.57 28.21 28.21 0 015.76-2.68 20.67 20.67 0 016.75-1.08 32.84 32.84 0 014.59.36 16 16 0 014.5 1.34 8.77 8.77 0 013.33 2.68 6.83 6.83 0 011.26 4.19 25.32 25.32 0 01-2 9 72.28 72.28 0 01-4 8.69 26.93 26.93 0 00-6.12-3.87 17.72 17.72 0 00-7.2-1.35 13.89 13.89 0 00-9.36 3.25 9.94 9.94 0 00-3.78 7.77v55.58h-24.42v-85.17l2.16-.36q1.08-.16 2.52-.27c1-.05 2.1-.09 3.42-.09a21.22 21.22 0 0110 2.23 10 10 0 015.3 6.92z"/><path d="M100.55 90.97a15.06 15.06 0 00-15-15.14l-9.38-.05h-2v.04c-.64 0-1.27.06-1.89.11h-.19c-.58 0-1.14.11-1.69.18h-.3q-.78.11-1.53.24l-.36.06c-.48.08-.94.18-1.4.29l-.39.08c-.45.1-.88.22-1.3.34l-.41.11q-.61.18-1.2.39l-.41.13c-.39.14-.76.28-1.12.43l-.41.17-1 .46-.41.19-1 .51-.39.21-.9.54-.38.24-.83.57-.37.27c-.26.19-.52.39-.76.59l-.36.29-.71.62-.34.32c-.22.21-.44.42-.65.64l-.32.34-.59.66-.31.36c-.19.23-.37.45-.54.68l-.29.38-.5.69-.27.41-.44.7-.26.43-.4.71-.24.45c-.12.24-.24.47-.35.71s-.15.32-.22.47-.22.48-.32.72-.13.33-.2.49-.19.47-.28.71l-.18.52-.24.7c-.06.18-.11.36-.16.54s-.15.46-.21.7l-.15.55c-.05.23-.12.46-.17.69s-.08.38-.13.58-.1.44-.14.67-.07.4-.11.59-.08.44-.11.66-.06.42-.09.63l-.09.62c0 .22-.05.44-.07.66s-.05.39-.07.58 0 .47 0 .7v2.98l.08 52.47a7.89 7.89 0 01-3.89 6.77l21.28 21.5c.95-.86 1.87-1.77 2.74-2.73.4-.45.8-.91 1.19-1.38a38 38 0 006.35-11.09c.22-.58.42-1.17.6-1.76a37.81 37.81 0 001.71-11.26v-42.38a9.24 9.24 0 019.29-9.23h.07a15.1 15.1 0 0015.11-15.02z" fill="#fbbd18"/><path class="c" d="M45.78 159.05a7.86 7.86 0 01-13.31 4.11 7.8 7.8 0 01-2.32-5.57V14.76A14.75 14.75 0 0015.36 0 14.8 14.8 0 00.66 14.68L.01 138.4v19.19a38 38 0 0038 38h.21a38 38 0 0029.65-14.5z"/><circle class="c" cx="82.29" cy="88.41" r="5.53"/><path class="a" d="M45.34 71.73a12.92 12.92 0 001.11 9.87l-.76.43a4.9 4.9 0 00-1.88 6.66 4.89 4.89 0 006.65 1.9l23.76-13.16a4.9 4.9 0 001.91-6.67 4.9 4.9 0 00-6.63-1.91l-.38.21a13 13 0 00-23.79 2.72z"/></svg>