<svg xmlns="http://www.w3.org/2000/svg" width="100.56" height="195.63" viewBox="0 0 100.56 195.63"><defs><style>.a{fill:#3c63a7;}</style></defs><title>Bowler_Blue</title><path class="a" d="M218.17,313.78c-.07.17-.11.29-.18.45s-.19.47-.28.71l-.18.52-.24.7c-.06.18-.11.36-.16.54s-.15.46-.21.7l-.15.55c-.05.23-.12.46-.17.69s-.08.38-.13.58-.1.44-.14.67-.07.4-.11.59-.08.44-.11.66-.06.42-.09.63l-.09.62c0,.22-.05.44-.07.66s-.05.39-.07.58,0,.47,0,.7,0,.36,0,.54,0,.54,0,.8,0,.29,0,.43c0,.41,0,.81,0,1.21l.08,52.47a7.5,7.5,0,0,1-.24,1.85c0,.11-.05.22-.08.33a6.34,6.34,0,0,1-.26.73,2.14,2.14,0,0,1-.12.28,6.77,6.77,0,0,1-.33.66l-.06.12a6.19,6.19,0,0,1-.51.75l-.1.12a7.78,7.78,0,0,1-1.34,1.35l0,0a7.89,7.89,0,0,1-.82.56h0a7.89,7.89,0,0,1-11.9-6.78l0-142.38a15.36,15.36,0,0,0-4.06-10.61,14.65,14.65,0,0,0-10.73-4.6h0a14.78,14.78,0,0,0-14.73,14.65l-.65,123.75v19.19a38,38,0,0,0,38,38H208A37.86,37.86,0,0,0,233.26,408h0c.95-.86,1.87-1.77,2.74-2.73.4-.45.8-.91,1.19-1.38a38,38,0,0,0,6.35-11.09c.22-.58.42-1.17.6-1.76a37.81,37.81,0,0,0,1.71-11.26l0-42.38a9.24,9.24,0,0,1,9.29-9.23h.07a15.08,15.08,0,0,0,.06-30.15l-6.59,0a7.77,7.77,0,0,0-4,1.14l-.21.11-23.8,13.17Zm33.9,2.33a5.53,5.53,0,1,1,5.53-5.53A5.53,5.53,0,0,1,252.07,316.11Z" transform="translate(-169.78 -222.18)"/><path class="a" d="M214.12,290.91a12.92,12.92,0,0,0,1.11,9.87l-.76.43a4.9,4.9,0,0,0-1.88,6.66h0a4.89,4.89,0,0,0,6.65,1.9L243,296.61a4.9,4.9,0,0,0,1.91-6.67h0a4.9,4.9,0,0,0-6.63-1.91l-.38.21h0l0,0a13,13,0,0,0-23.79,2.72Z" transform="translate(-169.78 -222.18)"/></svg>