<svg xmlns="http://www.w3.org/2000/svg" width="100.56" height="195.63" viewBox="0 0 100.56 195.63"><defs><style>.a{fill:#fbbd18;}.b{fill:#3c63a7;}.c{fill:#383838;}</style></defs><title>Bowler_FullColor</title><path class="a" d="M270.33,313.15a15.06,15.06,0,0,0-15-15.14l-9.38-.05h-2V298c-.64,0-1.27.06-1.89.11l-.19,0c-.58,0-1.14.11-1.69.18l-.3,0q-.78.11-1.53.24l-.36.06c-.48.08-.94.18-1.4.29l-.39.08c-.45.1-.88.22-1.3.34l-.41.11q-.61.18-1.2.39l-.41.13c-.39.14-.76.28-1.12.43l-.41.17-1,.46-.41.19-1,.51-.39.21-.9.54-.38.24-.83.57-.37.27c-.26.19-.52.39-.76.59l-.36.29-.71.62-.34.32c-.22.21-.44.42-.65.64l-.32.34-.59.66-.31.36c-.19.23-.37.45-.54.68l-.29.38-.5.69-.27.41-.44.7-.26.43-.4.71-.24.45c-.12.24-.24.47-.35.71s-.15.32-.22.47-.22.48-.32.72-.13.33-.2.49-.19.47-.28.71l-.18.52-.24.7c-.06.18-.11.36-.16.54s-.15.46-.21.7l-.15.55c-.05.23-.12.46-.17.69s-.08.38-.13.58-.1.44-.14.67-.07.4-.11.59-.08.44-.11.66-.06.42-.09.63l-.09.62c0,.22-.05.44-.07.66s-.05.39-.07.58,0,.47,0,.7,0,.36,0,.54,0,.54,0,.8,0,.29,0,.43c0,.41,0,.81,0,1.21l.08,52.47a7.89,7.89,0,0,1-3.89,6.77L233.27,408c.95-.86,1.87-1.77,2.74-2.73.4-.45.8-.91,1.19-1.38a38,38,0,0,0,6.35-11.09c.22-.58.42-1.17.6-1.76a37.81,37.81,0,0,0,1.71-11.26l0-42.38a9.24,9.24,0,0,1,9.29-9.23h.07A15.1,15.1,0,0,0,270.33,313.15Z" transform="translate(-169.78 -222.18)"/><path class="b" d="M215.56,381.23a7.86,7.86,0,0,1-13.31,4.11,7.8,7.8,0,0,1-2.32-5.57l0-142.83a14.75,14.75,0,0,0-14.79-14.76h0a14.8,14.8,0,0,0-14.7,14.68l-.65,123.72v19.19a38,38,0,0,0,38,38H208a38,38,0,0,0,29.65-14.5Z" transform="translate(-169.78 -222.18)"/><circle class="b" cx="82.29" cy="88.41" r="5.53"/><path class="c" d="M215.12,293.91a12.92,12.92,0,0,0,1.11,9.87l-.76.43a4.9,4.9,0,0,0-1.88,6.66h0a4.89,4.89,0,0,0,6.65,1.9L244,299.61a4.9,4.9,0,0,0,1.91-6.67h0a4.9,4.9,0,0,0-6.63-1.91l-.38.21h0l0,0a13,13,0,0,0-23.79,2.72Z" transform="translate(-169.78 -222.18)"/></svg>