<svg xmlns="http://www.w3.org/2000/svg" width="650.19" height="198.6" viewBox="0 0 650.19 198.6"><defs><style>.a{fill:#fff;}.b{fill:#fbbd18;}.c{fill:#406dad;}</style></defs><title>Bowler_FullColor_LightAlt_LightText</title><path class="a" d="M409.49,382.43q0,10.45-3.51,17.2a27.23,27.23,0,0,1-10.08,10.79,44.29,44.29,0,0,1-15.75,5.67,118.62,118.62,0,0,1-20.52,1.62H323.27V298q9.18-.88,17.37-1.44t15.75-.54a105.76,105.76,0,0,1,22.68,2.07q9.18,2.08,14.67,6a22.29,22.29,0,0,1,7.83,9.72,34.24,34.24,0,0,1,2.34,13,28.56,28.56,0,0,1-6.12,18.36,25.71,25.71,0,0,1-5.94,5.58,30.49,30.49,0,0,1-6.12,3.24,70.09,70.09,0,0,1,7.38,2.61A26.55,26.55,0,0,1,407,369.92,28.21,28.21,0,0,1,409.49,382.43Zm-30.78-54.18c0-5.63-2-9.54-5.88-11.7s-9.21-3.24-15.85-3.24c-2.29,0-4.16.07-5.61.18s-2.65.25-3.62.36v33.48H359.7q8.87,0,13.94-5.31T378.71,328.25Zm-20.83,71.64a74.69,74.69,0,0,0,11-.72,22,22,0,0,0,8.33-2.79,13.66,13.66,0,0,0,5.24-5.58,20.22,20.22,0,0,0,1.81-9.27q0-9.72-6.51-13.77T361,363.71H347.75v36.18Z" transform="translate(-169.78 -222.18)"/><path class="a" d="M502.08,374.69A65.5,65.5,0,0,1,499.83,392a38.82,38.82,0,0,1-7.38,14.58,36.7,36.7,0,0,1-13.23,10.08q-8.1,3.78-19.62,3.79t-19.53-3.7a35.62,35.62,0,0,1-13.05-9.9,39.92,39.92,0,0,1-7.38-14.4,62.17,62.17,0,0,1-2.34-17.19,55.17,55.17,0,0,1,2.7-17.37,42.35,42.35,0,0,1,8-14.4,37.34,37.34,0,0,1,13.41-9.81,46.35,46.35,0,0,1,18.9-3.6q11.34,0,19.35,3.6a34.64,34.64,0,0,1,13,9.73,38.81,38.81,0,0,1,7.2,14.21A63.67,63.67,0,0,1,502.08,374.69Zm-24.48.19a64.56,64.56,0,0,0-.72-9.64,25,25,0,0,0-2.72-8.36,16.47,16.47,0,0,0-5.42-5.86,17.75,17.75,0,0,0-17.46.09,17.61,17.61,0,0,0-5.61,6,27.6,27.6,0,0,0-3,8.37,49.68,49.68,0,0,0-.91,9.54,58,58,0,0,0,.82,9.72,29.43,29.43,0,0,0,2.8,8.73,16.11,16.11,0,0,0,5.52,6.21,15.44,15.44,0,0,0,8.77,2.34,15.84,15.84,0,0,0,9-2.34,16.08,16.08,0,0,0,5.51-6.21,28,28,0,0,0,2.72-8.73A67.33,67.33,0,0,0,477.6,374.88Z" transform="translate(-169.78 -222.18)"/><path class="a" d="M601,418.61H581.89l-14.58-39.06-16.74,39.06H533.29l-31.5-84.42a49.74,49.74,0,0,1,6.75-1.71,35.92,35.92,0,0,1,6-.63,18,18,0,0,1,9.45,2.34q3.87,2.35,5.85,7.92l16.2,48.6,12.06-29.33-8.64-27.55a43.73,43.73,0,0,1,6.39-1.53,40.38,40.38,0,0,1,5.85-.45,13.65,13.65,0,0,1,8,2.34q3.33,2.35,5,7.56l15.48,47.17,11.7-40.69q2.16-7.91,5.58-12.15c2.28-2.81,5.7-4.23,10.26-4.23a32.42,32.42,0,0,1,6.57.63,42,42,0,0,1,5.85,1.71Z" transform="translate(-169.78 -222.18)"/><path class="a" d="M661.18,418.79a13.27,13.27,0,0,1-3.42.54q-2.52.18-5.58.18a26.49,26.49,0,0,1-5.85-.63,12.06,12.06,0,0,1-5-2.34A11.59,11.59,0,0,1,638,412a18.56,18.56,0,0,1-1.26-7.39V290.81a8.44,8.44,0,0,1,2.7-.45c1.8-.17,3.66-.27,5.58-.27a31.19,31.19,0,0,1,5.76.54,14.24,14.24,0,0,1,5.22,2.08,11.15,11.15,0,0,1,3.78,4.31,16,16,0,0,1,1.44,7.29Z" transform="translate(-169.78 -222.18)"/><path class="a" d="M720.93,402.42a28.33,28.33,0,0,0,7.94-1A30.46,30.46,0,0,0,735,399a24.36,24.36,0,0,0,4.7-3.15q2-1.69,3.61-3.15a49.87,49.87,0,0,1,4.52,6.94c1.56,2.82,2.35,5.12,2.35,6.92,0,2.65-1.51,5-4.5,7.2a33.6,33.6,0,0,1-10.71,5,57.62,57.62,0,0,1-16.29,2.06A65,65,0,0,1,702,418.61a36.8,36.8,0,0,1-14.58-7.56,38.63,38.63,0,0,1-10.35-14.49q-4-9.07-4-22.95,0-11.34,3.51-19.53A39.29,39.29,0,0,1,686,340.49a37,37,0,0,1,13.23-7.92,46.75,46.75,0,0,1,15.12-2.52q10.08,0,17.1,3.16a31.13,31.13,0,0,1,11.43,8.46,33.31,33.31,0,0,1,6.39,12.14,51.59,51.59,0,0,1,2,14.4v2.52c0,1,0,2-.09,3.06s-.12,2.14-.18,3.15a22.71,22.71,0,0,1-.27,2.44h-53.1q.72,9.9,6.14,16.46T720.93,402.42Zm8.2-36.54q0-8.65-3.35-14.05t-12-5.4a14.89,14.89,0,0,0-11.86,5.13q-4.44,5.13-4.43,14.32Z" transform="translate(-169.78 -222.18)"/><path class="a" d="M786.49,341a31.31,31.31,0,0,1,2.88-3.57,20.46,20.46,0,0,1,4.41-3.57,28.21,28.21,0,0,1,5.76-2.68,20.67,20.67,0,0,1,6.75-1.08,32.84,32.84,0,0,1,4.59.36,16,16,0,0,1,4.5,1.34,8.77,8.77,0,0,1,3.33,2.68,6.83,6.83,0,0,1,1.26,4.19,25.32,25.32,0,0,1-2,9,72.28,72.28,0,0,1-4,8.69,26.93,26.93,0,0,0-6.12-3.87,17.72,17.72,0,0,0-7.2-1.35,13.89,13.89,0,0,0-9.36,3.25,9.94,9.94,0,0,0-3.78,7.77v55.58H763.09V332.57l2.16-.36q1.08-.16,2.52-.27c1-.05,2.1-.09,3.42-.09a21.22,21.22,0,0,1,10,2.23A10,10,0,0,1,786.49,341Z" transform="translate(-169.78 -222.18)"/><path class="b" d="M270.33,313.15a15.06,15.06,0,0,0-15-15.14l-9.38-.05h-2V298c-.64,0-1.27.06-1.89.11l-.19,0c-.58,0-1.14.11-1.69.18l-.3,0q-.78.11-1.53.24l-.36.06c-.48.08-.94.18-1.4.29l-.39.08c-.45.1-.88.22-1.3.34l-.41.11q-.61.18-1.2.39l-.41.13c-.39.14-.76.28-1.12.43l-.41.17-1,.46-.41.19-1,.51-.39.21-.9.54-.38.24-.83.57-.37.27c-.26.19-.52.39-.76.59l-.36.29-.71.62-.34.32c-.22.21-.44.42-.65.64l-.32.34-.59.66-.31.36c-.19.23-.37.45-.54.68l-.29.38-.5.69-.27.41-.44.7-.26.43-.4.71-.24.45c-.12.24-.24.47-.35.71s-.15.32-.22.47-.22.48-.32.72-.13.33-.2.49-.19.47-.28.71l-.18.52-.24.7c-.06.18-.11.36-.16.54s-.15.46-.21.7l-.15.55c-.05.23-.12.46-.17.69s-.08.38-.13.58-.1.44-.14.67-.07.4-.11.59-.08.44-.11.66-.06.42-.09.63l-.09.62c0,.22-.05.44-.07.66s-.05.39-.07.58,0,.47,0,.7,0,.36,0,.54,0,.54,0,.8,0,.29,0,.43c0,.41,0,.81,0,1.21l.08,52.47a7.89,7.89,0,0,1-3.89,6.77L233.27,408c.95-.86,1.87-1.77,2.74-2.73.4-.45.8-.91,1.19-1.38a38,38,0,0,0,6.35-11.09c.22-.58.42-1.17.6-1.76a37.81,37.81,0,0,0,1.71-11.26l0-42.38a9.24,9.24,0,0,1,9.29-9.23h.07A15.1,15.1,0,0,0,270.33,313.15Z" transform="translate(-169.78 -222.18)"/><path class="c" d="M215.56,381.23a7.86,7.86,0,0,1-13.31,4.11,7.8,7.8,0,0,1-2.32-5.57l0-142.83a14.75,14.75,0,0,0-14.79-14.76h0a14.8,14.8,0,0,0-14.7,14.68l-.65,123.72v19.19a38,38,0,0,0,38,38H208a38,38,0,0,0,29.65-14.5Z" transform="translate(-169.78 -222.18)"/><circle class="c" cx="82.29" cy="88.41" r="5.53"/><path class="c" d="M215.12,293.91a12.92,12.92,0,0,0,1.11,9.87l-.76.43a4.9,4.9,0,0,0-1.88,6.66h0a4.89,4.89,0,0,0,6.65,1.9L244,299.61a4.9,4.9,0,0,0,1.91-6.67h0a4.9,4.9,0,0,0-6.63-1.91l-.38.21h0l0,0a13,13,0,0,0-23.79,2.72Z" transform="translate(-169.78 -222.18)"/></svg>